<svg width="1817" height="1248" xmlns="http://www.w3.org/2000/svg" xmlns:xlink="http://www.w3.org/1999/xlink" xml:space="preserve" overflow="hidden"><defs><clipPath id="clip0"><rect x="849" y="190" width="1817" height="1248"/></clipPath></defs><g clip-path="url(#clip0)" transform="translate(-849 -190)"><path d="M777.607 829.851 515.128 678.309 775.995 527.653 1038.47 679.195 777.607 829.851ZM520.364 678.309 777.525 826.789 1033.16 679.195 775.995 530.715 520.364 678.309Z" fill="#C7EDFF" transform="matrix(1.00055 0 0 1 849 190)"/><path d="M1037.18 979.697 774.705 828.155 1035.57 677.5 1298.05 829.041 1037.18 979.697ZM779.943 828.155 1037.1 976.635 1292.73 829.041 1035.57 680.561 779.943 828.155Z" fill="#C7EDFF" transform="matrix(1.00055 0 0 1 849 190)"/><path d="M1296.68 1129.55 1034.21 978.009 1295.07 827.355 1557.55 978.896 1296.68 1129.55ZM1039.52 978.009 1296.68 1126.49 1552.32 978.896 1295.15 830.416 1039.52 978.009Z" fill="#C7EDFF" transform="matrix(1.00055 0 0 1 849 190)"/><path d="M520.043 978.572 257.564 827.031 518.431 676.376 780.909 827.917 520.043 978.572ZM262.801 827.031 519.963 975.511 775.592 827.917 518.431 679.437 262.801 827.031Z" fill="#C7EDFF" transform="matrix(1.00055 0 0 1 849 190)"/><path d="M779.621 1128.42 517.143 976.876 778.009 826.221 1040.49 977.763 779.621 1128.42ZM522.379 976.876 779.54 1125.36 1035.17 977.763 778.009 829.283 522.379 976.876Z" fill="#C7EDFF" transform="matrix(1.00055 0 0 1 849 190)"/><path d="M1039.2 1278.27 776.64 1126.73 1037.51 976.076 1299.99 1127.62 1039.2 1278.27ZM781.957 1126.73 1039.12 1275.21 1294.75 1127.62 1037.59 979.137 781.957 1126.73Z" fill="#C7EDFF" transform="matrix(1.00055 0 0 1 849 190)"/><path d="M262.479 1127.21 0 975.673 260.867 825.019 523.345 976.56 262.479 1127.21ZM5.31724 975.673 262.479 1124.15 518.109 976.56 260.948 828.08 5.31724 975.673Z" fill="#C7EDFF" transform="matrix(1.00055 0 0 1 849 190)"/><path d="M522.057 1277.14 259.579 1125.6 520.445 974.943 782.924 1126.48 522.057 1277.14ZM264.896 1125.52 522.057 1274 777.688 1126.4 520.445 978.004 264.896 1125.52Z" fill="#C7EDFF" transform="matrix(1.00055 0 0 1 849 190)"/><path d="M781.635 1427 519.156 1275.45 780.024 1124.8 1042.5 1276.34 781.635 1427ZM524.393 1275.45 781.555 1423.93 1037.19 1276.34 780.024 1127.86 524.393 1275.45Z" fill="#C7EDFF" transform="matrix(1.00055 0 0 1 849 190)"/><path d="M1035.98 680.648 773.499 529.107 1034.37 378.452 1296.84 529.993 1035.98 680.648ZM778.815 529.107 1035.98 677.587 1291.61 529.993 1034.45 381.513 778.815 529.107Z" fill="#C7EDFF" transform="matrix(1.00055 0 0 1 849 190)"/><path d="M1295.55 830.496 1033.08 678.955 1293.94 528.299 1556.43 679.84 1295.55 830.496ZM1038.39 678.955 1295.55 827.435 1551.19 679.84 1294.02 531.36 1038.39 678.955Z" fill="#C7EDFF" transform="matrix(1.00055 0 0 1 849 190)"/><path d="M1555.13 980.429 1292.65 828.887 1553.52 678.232 1816 829.773 1555.13 980.429ZM1297.89 828.807 1555.05 977.287 1810.68 829.693 1553.52 681.213 1297.89 828.807Z" fill="#C7EDFF" transform="matrix(1.00055 0 0 1 849 190)"/><path d="M592.068 1050.52C538.493 1081.46 451.403 1081.3 397.505 1050.2 343.608 1019.1 343.365 968.828 396.861 937.891 450.436 906.955 537.527 907.115 591.424 938.213 645.401 969.311 645.643 1019.66 592.068 1050.52Z" fill="#C9D6E2" transform="matrix(1.00055 0 0 1 849 190)"/><path d="M1547.56 971.568C1493.99 1002.5 1406.89 1002.34 1353 971.245 1299.1 940.148 1298.86 889.876 1352.35 858.939 1405.93 828.003 1493.01 828.164 1546.92 859.261 1600.81 890.359 1601.13 940.631 1547.56 971.568Z" fill="#C9D6E2" transform="matrix(1.00055 0 0 1 849 190)"/><path d="M923.669 379.26C934.304 447.417 877.023 551.103 749.811 432.191 704.373 389.733 652.651 160.769 706.225 129.832 759.801 98.8956 846.891 99.0568 900.789 130.155 954.687 161.333 914.163 318.192 923.669 379.26Z" fill="#C9D6E2" transform="matrix(1.00055 0 0 1 849 190)"/><path d="M537.604 184.617C537.604 184.617 555.651 174.547 565.721 179.623 575.792 184.617 585.379 209.833 579.336 226.833 573.295 243.832 574.423 309.572 574.423 309.572 574.423 309.572 587.957 340.912 591.985 357.025 596.013 373.057 597.06 389.573 597.06 389.573 597.06 389.573 571.36 381.113 564.755 393.601 558.148 406.089 558.148 406.089 558.148 406.089 558.148 406.089 505.137 316.34 505.54 292.251 505.861 267.921 537.604 184.617 537.604 184.617Z" fill="#2B83C6" transform="matrix(1.00055 0 0 1 849 190)"/><path d="M616.559 445.808C616.559 445.808 620.667 467.239 622.6 475.536 624.453 483.835 636.135 509.052 632.429 514.288 628.643 519.525 612.288 535.637 606.891 532.093 601.573 528.548 586.105 514.288 585.701 512.355 585.299 510.501 583.849 487.541 582.319 482.224 580.788 476.987 589.085 457.652 589.085 457.652L559.519 403.271C559.519 403.271 562.58 388.124 569.831 384.419 577.081 380.632 591.744 384.419 591.744 384.419 591.744 384.419 615.913 442.828 616.559 445.808Z" fill="#E2AB91" transform="matrix(1.00055 0 0 1 849 190)"/><path d="M544.695 458.132 544.695 586.471 687.696 669.049 687.696 540.709 647.816 517.668 647.816 539.421 586.024 503.731 586.024 481.979 544.695 458.132Z" fill="#F47113" transform="matrix(1.00055 0 0 1 849 190)"/><path d="M504.815 482.544 504.815 535.072C504.815 537.892 505.379 540.631 506.507 543.128L508.683 547.963 509.165 577.691C506.347 580.993 504.815 585.183 504.815 589.533L504.815 610.803 644.513 691.689C645.964 692.495 652.892 692.333 652.892 690.641L647.817 565.203 607.937 542.161 607.937 563.915 546.145 528.224 546.145 506.472 504.815 482.544Z" fill="#FC9A5D" transform="matrix(1.00055 0 0 1 849 190)"/><path d="M637.747 530.473 637.747 522.095 625.34 529.264 625.34 537.643 637.747 530.473Z" fill="#F47113" transform="matrix(1.00055 0 0 1 849 190)"/><path d="M560.565 499.62 560.565 490.757 625.339 529.267 625.339 537.645 560.565 499.62Z" fill="#FC9A5D" transform="matrix(1.00055 0 0 1 849 190)"/><path d="M637.747 522.097 572.408 484.393C572.408 484.393 567.977 486.004 566.608 486.729 564.996 487.616 560.645 490.757 560.645 490.757L625.339 529.267 637.747 522.097Z" fill="#FFA875" transform="matrix(1.00055 0 0 1 849 190)"/><path d="M627.999 525.24C632.591 522.581 647.817 517.667 647.817 517.667L687.697 540.708 647.817 565.199 607.939 542.157C607.939 542.157 622.359 528.543 627.999 525.24Z" fill="#FFA875" transform="matrix(1.00055 0 0 1 849 190)"/><path d="M684.313 672.511 651.281 691.524C649.751 692.411 647.817 691.283 647.817 689.511L647.817 565.199 660.949 552.953 674.564 545.3 687.696 542.159 687.696 666.631C687.696 669.047 686.408 671.303 684.313 672.511Z" fill="#F47113" transform="matrix(1.00055 0 0 1 849 190)"/><path d="M676.499 542.157 669.651 682.823 667.959 682.823 667.959 545.864 674.807 542.157 676.499 542.157Z" fill="#F47113" transform="matrix(1.00055 0 0 1 849 190)"/><path d="M667.796 547.476 660.948 688.221 659.256 688.221 659.256 551.183 666.104 547.476 667.796 547.476Z" fill="#F47113" transform="matrix(1.00055 0 0 1 849 190)"/><path d="M676.497 678.876 669.651 682.823 669.649 545.864 676.499 542.157 676.497 678.876Z" fill="#FC9A5D" transform="matrix(1.00055 0 0 1 849 190)"/><path d="M667.796 684.275 660.948 688.221 660.948 551.183 667.796 547.476 667.796 684.275Z" fill="#FC9A5D" transform="matrix(1.00055 0 0 1 849 190)"/><path d="M541.069 539.257 610.355 579.299C611.321 579.863 612.127 579.299 612.127 578.009 612.127 576.72 611.321 575.271 610.355 574.707L541.069 534.665C540.103 534.101 539.297 534.665 539.297 535.955 539.297 537.244 540.103 538.693 541.069 539.257Z" fill="#FFA875" transform="matrix(1.00055 0 0 1 849 190)"/><path d="M541.069 546.755 610.355 586.796C611.321 587.36 612.127 586.796 612.127 585.507 612.127 584.217 611.321 582.768 610.355 582.204L541.069 542.163C540.103 541.599 539.297 542.163 539.297 543.452 539.297 544.741 540.103 546.191 541.069 546.755Z" fill="#FFA875" transform="matrix(1.00055 0 0 1 849 190)"/><path d="M541.069 554.245 610.355 594.285C611.321 594.849 612.127 594.285 612.127 592.996 612.127 591.707 611.321 590.257 610.355 589.693L541.069 549.653C540.103 549.089 539.297 549.653 539.297 550.941 539.297 552.151 540.103 553.681 541.069 554.245Z" fill="#FFA875" transform="matrix(1.00055 0 0 1 849 190)"/><path d="M541.069 561.657 610.355 601.697C611.321 602.261 612.127 601.697 612.127 600.408 612.127 599.12 611.321 597.669 610.355 597.105L541.069 557.065C540.103 556.501 539.297 557.065 539.297 558.355 539.297 559.643 540.103 561.093 541.069 561.657Z" fill="#FFA875" transform="matrix(1.00055 0 0 1 849 190)"/><path d="M541.069 606.447 610.355 646.487C611.321 647.051 612.127 646.487 612.127 645.199 612.127 643.909 611.321 642.459 610.355 641.895L541.069 601.855C540.103 601.291 539.297 601.855 539.297 603.144 539.297 604.432 540.103 605.883 541.069 606.447Z" fill="#FFA875" transform="matrix(1.00055 0 0 1 849 190)"/><path d="M541.069 613.945 610.355 653.985C611.321 654.549 612.127 653.985 612.127 652.697 612.127 651.408 611.321 649.957 610.355 649.393L541.069 609.353C540.103 608.789 539.297 609.353 539.297 610.643 539.297 611.851 540.103 613.381 541.069 613.945Z" fill="#FFA875" transform="matrix(1.00055 0 0 1 849 190)"/><path d="M541.069 621.356 610.355 661.396C611.321 661.96 612.127 661.396 612.127 660.108 612.127 658.819 611.321 657.368 610.355 656.804L541.069 616.764C540.103 616.2 539.297 616.764 539.297 618.053 539.297 619.341 540.103 620.792 541.069 621.356Z" fill="#FFA875" transform="matrix(1.00055 0 0 1 849 190)"/><path d="M541.069 628.845 610.355 668.887C611.321 669.451 612.127 668.887 612.127 667.597 612.127 666.308 611.321 664.859 610.355 664.295L541.069 624.253C540.103 623.689 539.297 624.253 539.297 625.543 539.297 626.832 540.103 628.281 541.069 628.845Z" fill="#FFA875" transform="matrix(1.00055 0 0 1 849 190)"/><path d="M541.635 538.455 610.92 578.495C611.887 579.059 612.692 578.495 612.692 577.207 612.692 575.917 611.887 574.467 610.92 573.903L541.635 533.863C540.667 533.299 539.861 533.863 539.861 535.152 539.943 536.36 540.667 537.891 541.635 538.455Z" fill="#F47113" transform="matrix(1.00055 0 0 1 849 190)"/><path d="M541.635 545.867 610.92 585.908C611.887 586.472 612.692 585.908 612.692 584.619 612.692 583.329 611.887 581.879 610.92 581.316L541.635 541.275C540.667 540.711 539.861 541.275 539.861 542.564 539.943 543.853 540.667 545.384 541.635 545.867Z" fill="#F47113" transform="matrix(1.00055 0 0 1 849 190)"/><path d="M541.635 553.357 610.92 593.397C611.887 593.961 612.692 593.397 612.692 592.108 612.692 590.819 611.887 589.369 610.92 588.805L541.635 548.764C540.667 548.201 539.861 548.764 539.861 550.053 539.861 551.343 540.667 552.793 541.635 553.357Z" fill="#F47113" transform="matrix(1.00055 0 0 1 849 190)"/><path d="M541.635 560.855 610.92 600.895C611.887 601.459 612.692 600.895 612.692 599.605 612.692 598.316 611.887 596.867 610.92 596.303L541.635 556.261C540.667 555.697 539.861 556.261 539.861 557.551 539.861 558.84 540.667 560.291 541.635 560.855Z" fill="#F47113" transform="matrix(1.00055 0 0 1 849 190)"/><path d="M541.635 605.645 610.92 645.685C611.887 646.249 612.692 645.685 612.692 644.396 612.692 643.108 611.887 641.657 610.92 641.093L541.635 601.053C540.667 600.489 539.861 601.053 539.861 602.343 539.943 603.551 540.667 605.081 541.635 605.645Z" fill="#F47113" transform="matrix(1.00055 0 0 1 849 190)"/><path d="M541.635 613.056 610.92 653.096C611.887 653.66 612.692 653.096 612.692 651.807 612.692 650.519 611.887 649.068 610.92 648.504L541.635 608.464C540.667 607.9 539.861 608.464 539.861 609.753 539.943 611.041 540.667 612.492 541.635 613.056Z" fill="#F47113" transform="matrix(1.00055 0 0 1 849 190)"/><path d="M541.635 620.545 610.92 660.587C611.887 661.151 612.692 660.587 612.692 659.297 612.692 658.008 611.887 656.557 610.92 655.993L541.635 615.953C540.667 615.389 539.861 615.953 539.861 617.243 539.943 618.451 540.667 619.981 541.635 620.545Z" fill="#F47113" transform="matrix(1.00055 0 0 1 849 190)"/><path d="M541.635 627.957 610.92 667.999C611.887 668.563 612.692 667.999 612.692 666.709 612.692 665.42 611.887 663.971 610.92 663.407L541.635 623.365C540.667 622.801 539.861 623.365 539.861 624.655 539.943 625.944 540.667 627.475 541.635 627.957Z" fill="#F47113" transform="matrix(1.00055 0 0 1 849 190)"/><path d="M509.085 577.851 647.817 657.932 647.817 628.445 508.683 548.041 509.085 577.851Z" fill="#F47113" transform="matrix(1.00055 0 0 1 849 190)"/><path d="M645.32 655.837 647.817 663.895 647.817 621.517 644.433 626.432 645.32 655.837Z" fill="#F47113" transform="matrix(1.00055 0 0 1 849 190)"/><path d="M524.876 465.704C529.468 463.045 544.695 458.132 544.695 458.132L584.573 481.172C584.573 481.172 571.281 483.992 566.528 486.731 556.457 492.612 544.695 505.664 544.695 505.664L504.815 482.623C504.815 482.543 519.236 469.007 524.876 465.704Z" fill="#FFA875" transform="matrix(1.00055 0 0 1 849 190)"/><path d="M610.275 529.268C610.275 529.268 607.132 519.6 604.071 517.183 601.089 514.767 600.123 517.183 600.123 517.183 600.123 517.183 598.109 508.804 593.839 511.221 589.569 513.719 590.616 513.075 590.616 513.075 590.616 513.075 589.005 505.34 586.347 504.535 583.688 503.809 581.996 507.837 581.996 507.837 581.996 507.837 581.916 497.364 579.257 498.895 576.599 500.425 574.665 513.961 576.599 517.183 578.451 520.405 581.109 520.405 581.109 520.405 581.109 520.405 582.237 528.301 584.896 527.899 587.555 527.496 587.555 527.496 587.555 527.496 587.555 527.496 591.583 532.813 593.92 532.652 596.176 532.491 596.176 532.491 596.176 532.491 596.176 532.491 600.204 534.827 602.863 536.357 605.521 537.888 613.497 531.04 613.497 531.04L610.275 529.268Z" fill="#EFBEA3" transform="matrix(1.00055 0 0 1 849 190)"/><path d="M620.505 485.527 609.791 498.74C609.791 498.74 606.004 508.971 605.279 511.227 604.553 513.483 608.26 522.264 605.279 524.117 602.297 525.971 597.141 513 596.336 511.227 595.531 509.455 594.805 491.328 594.805 491.328 594.805 491.328 588.924 469.495 597.141 465.305 601.169 463.291 605.199 459.665 608.26 456.443 611.08 453.543 615.913 454.509 617.444 458.216 620.344 465.628 623.567 476.745 620.505 485.527Z" fill="#EFBEA3" transform="matrix(1.00055 0 0 1 849 190)"/><path d="M538.492 902.039C538.492 902.039 554.363 928.143 572.409 929.673 590.456 931.204 611.564 954.487 613.82 963.591 616.076 972.613 616.559 986.068 594.323 990.257 562.741 996.219 538.008 959.563 522.46 957.468 506.911 955.373 473.719 945.544 472.993 935.796 472.268 925.967 481.292 898.172 481.292 898.172 481.292 898.172 514.403 913.963 523.427 911.707 532.531 909.291 538.492 902.039 538.492 902.039Z" fill="#C7EDFF" transform="matrix(1.00055 0 0 1 849 190)"/><path d="M538.492 895.997C538.492 895.997 554.363 922.1 572.409 923.631 590.456 925.161 611.564 948.444 613.82 957.548 616.076 966.572 616.559 980.025 594.323 984.215 562.741 990.177 538.009 953.52 522.46 951.425 506.911 949.331 473.719 939.501 472.993 929.753 472.268 919.925 481.292 892.131 481.292 892.131 481.292 892.131 514.404 907.92 523.427 905.665 532.531 903.328 538.492 895.997 538.492 895.997Z" fill="#96C7ED" transform="matrix(1.00055 0 0 1 849 190)"/><path d="M538.492 896.003C538.492 896.003 557.344 918.157 562.257 920.332 567.172 922.508 583.688 933.143 572.409 938.379 561.131 943.616 534.867 925.085 527.212 910.02 522.62 900.997 538.492 896.003 538.492 896.003Z" fill="#AEDFF7" transform="matrix(1.00055 0 0 1 849 190)"/><path d="M440.685 964.313C440.685 964.313 475.168 1008.54 485.801 1014.5 496.436 1020.55 494.905 1041.09 491.119 1050.92 487.332 1060.75 441.411 1059.94 426.345 1046.41 411.28 1032.87 380.665 988.644 379.619 985.421 375.107 970.516 384.211 964.071 384.211 964.071 384.211 964.071 405.963 969.549 412.731 971.08 419.577 972.611 440.685 964.313 440.685 964.313Z" fill="#C7EDFF" transform="matrix(1.00055 0 0 1 849 190)"/><path d="M441.412 957.549C441.412 957.549 468.481 1001.78 479.116 1007.74 489.751 1013.78 495.632 1034.33 491.925 1044.16 488.139 1053.98 442.217 1053.18 427.152 1039.64 412.087 1026.11 383.083 984.86 381.552 976.965 378.893 962.867 389.448 944.497 389.448 944.497 389.448 944.497 406.769 962.867 413.536 964.316 420.304 965.847 441.412 957.549 441.412 957.549Z" fill="#96C7ED" transform="matrix(1.00055 0 0 1 849 190)"/><path d="M437.061 955.289C437.061 955.289 459.781 995.491 462.279 1001.45 464.776 1007.49 450.193 1010.48 440.687 1003.47 431.18 996.457 423.124 958.835 423.124 958.835 423.124 958.835 433.759 949.328 437.061 955.289Z" fill="#AEDFF7" transform="matrix(1.00055 0 0 1 849 190)"/><path d="M558.633 457.728C558.633 457.728 568.703 516.943 569.671 548.12 570.637 579.219 551.14 733.901 551.381 742.925 551.624 751.948 542.279 788.121 543.971 794.164 545.661 800.207 547.353 829.291 543.971 837.347 540.587 845.403 540.587 852.412 540.587 865.464 540.587 878.515 547.353 896.964 543.971 902.281 540.587 907.599 524.393 919.683 501.432 913.641 478.471 907.599 472.993 892.049 472.993 892.049 472.993 892.049 468.643 844.356 472.993 841.375 477.343 838.393 460.828 840.408 462.52 824.295 464.212 808.263 464.212 769.028 464.212 769.028L472.912 718.836 462.439 691.687 477.183 563.187 481.211 501.957C481.211 501.957 528.019 499.299 543.809 481.896 559.76 464.415 558.633 457.728 558.633 457.728Z" fill="#26466C" transform="matrix(1.00055 0 0 1 849 190)"/><path d="M514 495.835C514 495.835 495.712 684.597 484.352 701.677 472.993 718.756 469.609 738.092 467.756 748.807 465.904 759.523 442.137 777.972 447.212 796.099 452.208 814.145 440.445 845.323 442.863 862.403 445.199 879.483 450.273 955.293 445.199 963.592 440.204 971.889 412.087 977.449 392.993 964.156 373.899 950.863 373.899 939.825 373.899 930.721 373.899 921.699 388.32 909.613 381.149 902.604 373.899 895.596 363.909 805.203 366.889 795.132 369.871 785.061 378.329 757.831 381.149 748.888 383.969 739.945 377.927 730.921 383.969 717.871 390.012 704.819 377.927 697.809 378.491 690.72 378.975 683.711 366.971 519.037 372.932 504.939 378.975 490.921 387.997 469.813 387.997 469.813 387.997 469.813 442.54 488.745 447.132 491.404 451.724 494.063 514 495.835 514 495.835Z" fill="#194D7E" transform="matrix(1.00055 0 0 1 849 190)"/><path d="M526.407 168.499C526.407 168.499 557.665 167.532 561.613 187.592 565.641 207.652 586.911 292.004 576.276 321.168 565.641 350.252 559.599 410.916 560.567 422.759 561.533 434.603 558.552 441.692 558.552 457.724 558.552 473.756 543.487 494.784 510.857 501.309 478.229 507.835 447.132 492.287 419.015 477.785 390.897 463.283 387.917 447.171 387.917 447.171 387.917 447.171 366.889 417.523 378.411 405.519 389.931 393.433 392.992 391.5 386.949 367.331 380.908 343.243 378.411 307.069 378.411 307.069 378.411 307.069 373.899 234.803 391.945 216.676 409.992 198.629 454.221 182.516 454.221 182.516L526.407 168.499Z" fill="#1E5F99" transform="matrix(1.00055 0 0 1 849 190)"/><path d="M513.999 258.331C513.999 258.331 524.875 283.467 527.936 310.213 530.997 336.961 522.941 478.271 522.941 478.271L511.743 482.541C511.743 482.541 520.524 345.581 515.368 304.172 513.193 286.931 506.184 261.151 506.184 261.151L513.999 258.331Z" fill="#26466C" transform="matrix(1.00055 0 0 1 849 190)"/><path d="M512.549 258.331C512.549 258.331 523.425 283.467 526.487 310.213 529.549 336.961 521.492 478.271 521.492 478.271L510.293 482.541C510.293 482.541 519.075 345.581 513.919 304.172 511.744 286.931 504.735 261.151 504.735 261.151L512.549 258.331Z" fill="#2B83C6" transform="matrix(1.00055 0 0 1 849 190)"/><path d="M541.069 199.117 524.876 182.763 512.468 182.763 452.932 185.18C452.932 185.18 444.151 188.644 445.681 199.681 447.212 210.719 467.272 243.347 470.253 244.877 473.233 246.409 512.468 258.413 512.468 258.413 512.468 258.413 541.713 233.519 540.827 220.628 540.103 207.657 541.069 199.117 541.069 199.117Z" fill="#C7EDFF" transform="matrix(1.00055 0 0 1 849 190)"/><path d="M516.095 165.517C520.043 165.517 531.563 197.179 531.563 218.207 531.563 239.233 512.549 258.328 512.549 258.328 512.549 258.328 466.305 238.831 456.799 215.225 447.292 191.62 454.301 182.597 454.301 182.597 454.301 182.597 461.311 171.56 454.301 168.499 447.292 165.517 428.279 187.189 427.232 194.199 426.184 201.208 431.18 233.836 431.18 233.836L450.757 231.339 458.249 254.46 511.421 262.275 551.22 231.339 544.051 218.771C544.051 218.771 556.135 216.032 559.357 213.856 562.58 211.681 544.051 194.117 542.52 185.579 541.069 177.039 516.095 165.517 516.095 165.517Z" fill="#2B83C6" transform="matrix(1.00055 0 0 1 849 190)"/><path d="M521.492 165.521 513.597 218.291C513.597 218.291 509.085 234.807 497.161 227.797 485.239 220.788 464.775 209.992 460.183 197.505 455.591 185.099 454.14 182.6 454.14 182.6 454.14 182.6 457.121 179.539 458.168 168.501 459.216 157.464 459.216 142.883 459.216 142.883L521.492 165.521Z" fill="#E2AB91" transform="matrix(1.00055 0 0 1 849 190)"/><path d="M543.084 91.2389C544.052 93.0113 553.8 118.872 551.221 125.398 548.644 131.924 553.8 136.919 551.221 139.416 548.644 141.913 546.388 165.923 545.904 168.5 544.212 178.973 541.393 189.124 539.299 188.48 537.204 187.836 524.475 194.2 518.916 192.669 513.356 191.139 471.704 172.045 467.676 164.795 463.648 157.543 444.232 142.477 445.44 134.905 446.649 127.412 448.421 126.365 448.421 126.365 448.421 126.365 428.523 67.0696 467.757 53.0513 518.512 35.0049 530.033 68.6003 543.084 91.2389Z" fill="#EFBEA3" transform="matrix(1.00055 0 0 1 849 190)"/><path d="M551.22 96.6364C551.22 96.6364 590.776 120.322 589.245 125.801 587.715 131.36 550.092 147.069 541.068 145.217 532.045 143.364 487.815 121.128 487.815 121.128 487.815 121.128 516.737 116.858 533.979 109.204 543.808 104.935 551.22 96.6364 551.22 96.6364Z" fill="#2B83C6" transform="matrix(1.00055 0 0 1 849 190)"/><path d="M551.22 96.6376C551.22 96.6376 548.079 63.6063 521.492 50.5548 494.907 37.5033 476.619 44.5124 476.619 44.5124 476.619 44.5124 443.425 53.5356 438.672 89.2256 435.128 115.57 443.425 126.366 443.425 126.366 443.425 126.366 471.14 123.707 497.725 119.518 543.084 112.267 551.22 96.6376 551.22 96.6376Z" fill="#2B83C6" transform="matrix(1.00055 0 0 1 849 190)"/><path d="M347.312 454.828 356.255 536.601 381.229 553.117C381.229 553.117 399.276 574.951 394.04 583.973 388.803 592.996 388.803 602.02 388.803 602.02 388.803 602.02 378.973 596.783 379.78 592.191 380.504 587.679 380.504 577.125 380.504 577.125L372.368 572.452 371.159 598.959 374.543 617.165C374.543 617.165 390.011 625.061 391.059 628.123 392.025 631.103 393.556 635.615 390.817 635.937 388.077 636.179 375.027 629.653 373.979 629.412 372.932 629.169 364.151 618.857 364.151 618.857L359.397 606.531 361.652 624.336 366.405 633.601C366.405 633.601 372.045 635.615 373.979 639.16 375.912 642.704 374.945 645.685 369.467 644.155 363.908 642.624 354.965 637.468 354.965 637.468L350.615 630.297C350.615 630.297 345.379 629.572 342.64 625.705 339.82 621.757 339.82 619.824 339.82 619.824 339.82 619.824 334.824 616.037 334.019 613.54 333.293 611.043 327.493 555.051 326.768 551.748 326.043 548.444 320.243 540.468 320.484 534.668 320.725 528.867 305.903 469.652 305.419 460.871 304.935 452.089 304.452 446.289 306.949 445.805 309.367 445.403 343.525 441.616 347.312 454.828Z" fill="#EFBEA3" transform="matrix(1.00055 0 0 1 849 190)"/><path d="M415.792 258.331C415.792 258.331 410.556 302.32 400.727 314.324 390.897 326.408 350.293 384.333 352.549 398.675 354.805 413.015 360.041 454.908 354.805 457.648 349.568 460.387 330.716 470.94 319.437 465.704 308.159 460.467 302.116 456.923 298.329 454.747 294.543 452.572 297.604 389.329 302.116 382.723 306.628 376.116 319.437 320.365 326.929 305.3 334.423 290.235 368.823 224.413 380.424 220.547 391.945 216.76 415.792 222.641 415.792 258.331Z" fill="#2B83C6" transform="matrix(1.00055 0 0 1 849 190)"/><path d="M559.841 447.169C559.841 447.169 550.657 476.656 505.46 485.517 460.264 494.38 420.143 469.727 409.589 464.248 399.035 458.689 387.997 447.169 387.997 447.169L387.997 469.727C387.997 469.727 412.569 508.397 493.456 502.677 547.192 498.891 560.244 467.149 560.244 467.149L559.841 447.169Z" fill="#194D7E" transform="matrix(1.00055 0 0 1 849 190)"/><path d="M523.909 481.571 524.553 496.233C524.635 498.569 523.104 500.664 520.848 501.309 515.772 502.679 507.313 504.853 505.46 504.612 502.801 504.209 504.332 502.437 504.332 502.437L515.852 499.215C518.028 498.651 519.479 496.636 519.479 494.38L519.479 487.129C519.479 484.793 517.303 483.021 514.967 483.504 510.213 484.471 503.445 485.921 503.768 485.84 504.332 485.76 501.189 481.812 506.427 480.281 509.729 479.315 515.611 478.509 519.559 478.107 521.895 477.784 523.748 479.396 523.909 481.571Z" fill="#BBEBFF" transform="matrix(1.00055 0 0 1 849 190)"/><path d="M526.487 486.563 514.403 491.316 514.403 493.249 526.407 488.576 526.487 486.563Z" fill="#C7EDFF" transform="matrix(1.00055 0 0 1 849 190)"/><path d="M539.379 353.877C546.227 353.313 553.075 352.669 559.843 352.105 559.923 352.105 573.377 339.617 575.793 334.381 583.125 321.168 579.016 278.549 578.211 278.631 569.752 288.137 559.44 293.535 541.312 301.027 538.573 316.817 538.573 331.964 539.379 353.877Z" fill="#2B83C6" transform="matrix(1.00055 0 0 1 849 190)"/><path d="M454.785 391.743C462.52 393.435 470.173 395.047 477.908 396.737 477.988 396.737 491.523 384.251 493.94 379.013 501.352 365.801 497.324 323.183 496.519 323.263 488.3 332.367 474.283 340.181 452.369 343.485 453.095 358.792 449.711 376.436 454.785 391.743Z" fill="#2B83C6" transform="matrix(1.00055 0 0 1 849 190)"/><path d="M1377.65 227.881C1377.65 227.881 1447.17 199.28 1437.67 182.523 1428.16 165.765 1384.57 159.401 1378.61 155.212 1372.65 151.023 1332.37 96.6416 1332.37 96.6416 1332.37 96.6416 1312.71 113.963 1301.43 102.12 1290.16 90.2769 1259.78 66.5911 1271.55 104.859 1275.09 116.299 1347.52 198.475 1363.71 210.479 1379.99 222.403 1377.65 227.881 1377.65 227.881Z" fill="#1E5F99" transform="matrix(1.00055 0 0 1 849 190)"/><path d="M1458.85 857.409C1458.85 865.304 1435.33 881.095 1418.17 885.123 1413.99 886.089 1412.53 886.171 1412.13 886.171 1412.37 886.573 1411.24 889.312 1384.91 904.78 1339.55 931.367 1328.67 907.761 1328.67 899.867 1328.67 892.132 1358.64 868.527 1365.64 866.432L1366.13 866.352C1372.01 865.385 1395.69 828.889 1395.69 828.889L1436.13 794.408C1436.13 794.408 1444.04 823.975 1445 826.956 1445.32 827.923 1446.77 830.5 1448.71 833.884 1452.81 841.055 1458.85 852.011 1458.85 857.409Z" fill="#FFD1B6" transform="matrix(1.00055 0 0 1 849 190)"/><path d="M1458.85 857.409C1458.85 865.304 1435.33 881.095 1418.17 885.123 1413.99 886.089 1412.53 886.171 1412.13 886.171 1412.37 886.573 1411.24 889.312 1384.91 904.78 1339.55 931.367 1328.67 907.761 1328.67 899.867 1328.67 892.132 1358.64 868.527 1365.64 866.432L1366.13 866.352C1366.13 866.352 1344.69 898.899 1393.76 882.141 1413.33 875.455 1427.92 863.128 1439.52 845.001 1450.64 827.519 1448.79 833.884 1448.79 833.884 1452.81 841.053 1458.85 852.011 1458.85 857.409Z" fill="#1E5F99" transform="matrix(1.00055 0 0 1 849 190)"/><path d="M1344.69 402.867C1344.69 402.867 1313.84 439.363 1315.86 504.459 1317.79 569.553 1349.37 638.597 1349.37 638.597L1393.76 794.409 1395.69 828.891C1395.69 828.891 1407.53 835.819 1426.23 828.891 1444.92 821.963 1449.92 804.237 1449.92 804.237 1449.92 804.237 1438.07 750.019 1444.04 736.161 1449.92 722.384 1447.01 679.927 1445 672.032 1443.07 664.136 1430.17 645.445 1428.24 634.569 1426.31 623.693 1427.28 553.683 1427.28 553.683 1427.28 553.683 1461.76 495.516 1427.28 447.177 1392.8 398.919 1344.69 402.867 1344.69 402.867Z" fill="#F47113" transform="matrix(1.00055 0 0 1 849 190)"/><path d="M1562.39 894.391C1562.39 901.32 1555.93 915.096 1550.05 921.541 1544.17 927.987 1540.23 946.677 1532.81 958.037 1525.4 969.396 1509.61 979.708 1493.35 982.207 1477.07 984.704 1467.72 984.22 1463.29 971.329 1460.55 963.435 1473.12 943.696 1484.72 927.744 1492.05 917.755 1499.07 909.296 1501.72 906.233 1508.65 898.339 1514.04 868.288 1514.04 868.288L1547.56 855.72C1547.56 855.72 1551.99 865.147 1555.93 874.895 1559.32 882.951 1562.39 891.249 1562.39 894.391Z" fill="#FFD1B6" transform="matrix(1.00055 0 0 1 849 190)"/><path d="M1562.39 894.391C1562.39 901.32 1555.93 915.096 1550.05 921.541 1544.17 927.987 1540.23 946.677 1532.81 958.037 1525.4 969.396 1509.61 979.708 1493.35 982.207 1477.07 984.704 1467.72 984.22 1463.29 971.329 1460.55 963.435 1473.12 943.696 1484.72 927.744 1484.72 927.744 1481.49 948.127 1494.79 946.677 1508.08 945.227 1525.89 938.781 1535.24 922.508 1544.57 906.233 1555.93 874.895 1555.93 874.895 1559.32 882.951 1562.39 891.249 1562.39 894.391Z" fill="#1E5F99" transform="matrix(1.00055 0 0 1 849 190)"/><path d="M1407.53 414.625C1407.53 414.625 1436.05 669.933 1446.45 682.824 1456.84 695.715 1477.55 723.267 1480.53 742.039 1483.51 760.811 1510.09 875.373 1510.09 875.373 1510.09 875.373 1524.92 890.439 1539.67 875.373 1554.49 860.307 1554.49 860.307 1554.49 860.307 1554.49 860.307 1568.27 757.749 1567.29 740.024 1566.33 722.3 1529.84 658.171 1529.84 658.171 1529.84 658.171 1549.57 504.373 1537.73 472.793 1525.89 441.212 1506.15 402.701 1506.15 402.701L1407.53 414.625Z" fill="#F77F2C" transform="matrix(1.00055 0 0 1 849 190)"/><path d="M1551.03 261.557C1550.87 264.619 1550.61 267.519 1550.21 270.177 1547.24 291.608 1510.99 347.116 1503.65 358.153 1496.24 369.272 1503.65 395.133 1503.65 395.133 1503.65 395.133 1503.65 395.133 1508.81 397.389 1513.96 399.644 1520.41 432.192 1520.41 432.192 1520.41 432.192 1484.4 480.935 1419.39 480.209 1354.28 479.484 1338.49 411.729 1339.87 409.635 1341.15 407.54 1362.51 335.273 1362.51 335.273 1362.51 335.273 1369.19 308.688 1358.07 299.745 1346.95 290.883 1349.21 274.609 1349.21 262.765 1349.21 250.923 1411.32 177.689 1411.32 177.689 1414.87 174.789 1418.57 174.307 1422.04 175.192 1425.83 176.079 1429.37 178.576 1432.19 181.073 1435.81 184.296 1438.31 187.68 1438.56 188.003L1420.83 156.26C1420.83 156.26 1489.63 151.829 1491.81 156.26 1493.33 159.401 1503.49 175.192 1509.29 184.135 1511.63 187.841 1513.32 190.339 1513.32 190.339 1513.32 190.339 1520.41 193.159 1527.99 196.541 1536.36 200.167 1545.39 204.356 1546.59 205.888 1548.52 208.465 1552.23 239.563 1551.03 261.557Z" fill="#2B83C6" transform="matrix(1.00055 0 0 1 849 190)"/><path d="M1422.04 175.273C1425.83 176.16 1429.37 178.657 1432.19 181.155L1422.04 175.273Z" fill="#FFD1B6" transform="matrix(1.00055 0 0 1 849 190)"/><path d="M1509.29 184.215C1509.93 185.1 1500.75 202.18 1487.45 211.043 1474.16 219.904 1445.24 224.335 1432.19 215.473 1419.13 206.611 1432.19 181.153 1432.19 181.153 1435.81 184.375 1438.32 187.759 1438.56 188.081L1420.83 156.339C1420.83 156.339 1489.64 151.908 1491.81 156.339 1493.43 159.481 1503.57 175.272 1509.29 184.215Z" fill="#E2AB91" transform="matrix(1.00055 0 0 1 849 190)"/><path d="M1551.03 261.556C1544.17 265.988 1535.48 269.693 1526.61 267.921 1511.79 265.101 1522.35 217.971 1527.99 196.46 1536.36 200.085 1545.39 204.275 1546.59 205.805 1548.52 208.464 1552.23 239.563 1551.03 261.556Z" fill="#FFD1B6" transform="matrix(1.00055 0 0 1 849 190)"/><path d="M1397.79 100.185C1397.79 100.185 1375.8 104.697 1366.29 103.73 1356.79 102.763 1293.86 114.929 1288.46 111.384 1283.07 107.92 1268.08 95.9961 1269.53 88.1813 1270.98 80.3667 1291.12 64.0927 1324.96 69.6516 1358.8 75.2105 1406.17 79.8832 1414.31 80.6889 1422.36 81.5751 1432.11 100.427 1397.79 100.185Z" fill="#FFD1B6" transform="matrix(1.00055 0 0 1 849 190)"/><path d="M1399.72 84.3993C1399.72 84.3993 1393.76 69.4949 1395.85 65.8696 1398.84 60.7135 1409.07 58.1353 1409.07 58.1353 1409.07 58.1353 1412.21 57.088 1415.19 56.6852 1418.73 56.2019 1415.52 63.4527 1415.19 63.2915 1412.53 62.2441 1403.19 68.9309 1403.19 68.9309L1399.72 84.3993Z" fill="#FFD1B6" transform="matrix(1.00055 0 0 1 849 190)"/><path d="M1424.05 94.6309 1426.64 89.072C1426.64 89.072 1422.6 83.5132 1425.35 78.0348 1428.08 72.5564 1429.93 74.8928 1429.45 75.8595 1428.97 76.9068 1434.37 82.8687 1434.37 82.8687 1434.37 82.8687 1432.19 94.3088 1429.21 96.8868 1426.23 99.4649 1420.43 101.962 1420.43 101.962L1424.05 94.6309Z" fill="#FFD1B6" transform="matrix(1.00055 0 0 1 849 190)"/><path d="M1408.59 52.7359C1409.39 50.2384 1418.01 48.0631 1418.01 48.0631 1418.01 48.0631 1422.85 47.0964 1419.79 49.8356 1416.72 52.6553 1408.91 58.0531 1408.91 58.0531 1408.91 58.0531 1408.11 54.3472 1408.59 52.7359Z" fill="#FFD1B6" transform="matrix(1.00055 0 0 1 849 190)"/><path d="M1403.83 83.1036C1403.83 83.1036 1396.51 117.102 1401.33 123.064 1406.25 129.025 1403.59 140.547 1404.88 145.541 1406.17 150.536 1406.49 156.659 1409.39 164.796 1412.29 172.933 1410.76 188.481 1419.05 191.221 1427.36 193.88 1438.64 196.377 1445.4 193.88 1452.17 191.383 1485.84 170.355 1487.29 166.971 1487.29 166.971 1516.13 122.258 1516.87 107.031 1517.59 91.8852 1513.16 45.6412 1476.91 38.9544 1440.81 32.4287 1411.65 58.6927 1403.83 83.1036Z" fill="#FFD1B6" transform="matrix(1.00055 0 0 1 849 190)"/><path d="M1419.21 84.5539 1399.72 113.396C1399.72 113.396 1390.13 83.8288 1406.41 61.5929 1422.68 39.4379 1460.79 37.9876 1460.79 37.9876 1460.79 37.9876 1501.16 25.0168 1519.04 61.1901 1536.92 97.4441 1512.51 143.929 1515.49 157.787 1518.48 171.724 1535.15 178.089 1535.15 178.089 1535.15 178.089 1509.93 202.823 1489.96 204.272 1469.97 205.723 1467.72 204.111 1469.97 204.272 1472.31 204.433 1482.15 172.852 1482.55 165.037 1482.95 157.304 1477.39 129.267 1477.39 129.267 1477.39 129.267 1445.24 127.011 1433.72 120.244 1422.36 113.638 1419.21 84.5539 1419.21 84.5539Z" fill="#F77F2C" transform="matrix(1.00055 0 0 1 849 190)"/><path d="M1586.15 169.231C1586.15 169.231 1552.39 171.487 1542.16 174.065 1531.93 176.643 1520.33 179.14 1519.44 191.225 1518.56 203.309 1503.73 247.701 1518.56 266.151 1533.37 284.68 1554.08 279.847 1556.67 276.865 1559.24 273.884 1579.95 245.445 1600.65 236.18 1621.36 226.915 1667.92 190.661 1654.31 182.927 1640.53 175.193 1586.15 169.231 1586.15 169.231Z" fill="#2B83C6" transform="matrix(1.00055 0 0 1 849 190)"/><path d="M1430.09 82.3757C1430.09 82.3757 1430.33 88.0152 1434.93 87.9347 1439.52 87.7736 1449.27 93.4131 1449.27 93.4131L1459.75 100.744C1459.75 100.744 1478.6 125.881 1483.43 129.425 1488.27 132.97 1531.12 151.823 1533.71 152.951 1536.28 154.079 1589.53 186.143 1596.95 187.351 1604.36 188.479 1620.63 199.597 1632.48 198.147 1644.32 196.696 1654.31 184.128 1654.31 183 1654.31 181.873 1648.75 165.84 1639.16 157.945 1629.57 150.049 1581.08 135.629 1574.79 134.501 1568.51 133.373 1509.45 110.09 1509.45 110.09 1509.45 110.09 1496.8 71.2579 1495.68 69.8077 1494.55 68.3576 1476.43 45.7996 1475.69 47.2497 1474.97 48.6999 1463.21 41.9324 1463.21 41.9324 1463.21 41.9324 1454.59 39.5961 1453.87 41.9324 1453.13 44.2688 1455.23 48.8609 1458.45 49.1027 1461.68 49.2639 1467.48 52.6475 1467.48 52.6475L1478.19 63.2015 1463.93 54.9839 1447.91 51.4391C1447.91 51.4391 1434.61 52.8892 1433.88 54.0171 1433.16 55.1449 1432.6 59.8177 1436.47 59.576 1440.33 59.2537 1443.47 61.1068 1443.47 61.1068L1432.27 61.1068C1432.27 61.1068 1426.87 65.1349 1435.01 68.8409 1443.15 72.5469 1443.15 72.5469 1443.15 72.5469L1458.45 80.6839 1467.48 91.9629 1451.2 86.5651 1439.36 82.5369 1430.09 82.5369 1430.09 82.3757Z" fill="#FFD1B6" transform="matrix(1.00055 0 0 1 849 190)"/><path d="M923.107 514.852C959.441 523.312 968.867 543.211 997.387 547.077 1025.91 550.945 1113 509.213 1185.59 563.352 1258.09 617.411 1112.84 655.437 1118.47 688.468 1124.11 721.419 1122.99 774.995 1033.88 798.036 942.2 821.803 841.415 770.564 813.539 778.136 785.664 785.709 716.297 788.609 672.793 750.1 629.288 711.591 689.067 658.981 738.775 633.04 788.564 607.017 735.069 608.388 766.248 567.38 797.345 526.292 886.772 506.393 923.107 514.852Z" fill="#E3F7FF" transform="matrix(1.00055 0 0 1 849 190)"/><path d="M907.396 510.179C942.924 518.396 952.109 537.892 980.065 541.679 1008.02 545.465 1093.18 504.7 1164.07 557.551 1234.97 610.481 1092.94 647.621 1098.49 679.847 1104.05 712.072 1102.93 764.44 1015.75 786.997 926.167 810.2 827.476 760.169 800.325 767.501 773.095 774.832 705.26 777.732 662.641 740.109 620.104 702.485 678.512 651.005 727.173 625.627 775.835 600.249 723.548 601.539 754.001 561.417 784.455 521.296 871.867 501.961 907.396 510.179Z" fill="#C7EDFF" transform="matrix(1.00055 0 0 1 849 190)"/><path d="M817.271 353.135 793.303 394.647 805.792 401.857 829.76 360.345 817.271 353.135Z" fill="#BBEBFF" transform="matrix(1.00055 0 0 1 849 190)"/><path d="M817.245 353.153C817.004 352.993 816.763 352.912 816.52 352.751 816.843 352.912 817.004 352.993 817.245 353.153Z" fill="#BBEBFF" transform="matrix(1.00055 0 0 1 849 190)"/><path d="M809.431 395.536 805.805 401.9 793.479 394.811C793.076 394.569 792.915 394.488 792.673 394.327 791.384 393.28 791.223 393.039 790.981 392.716 790.66 392.313 790.499 392.072 790.337 391.829 790.096 391.427 790.015 391.347 789.935 391.185 789.853 391.024 789.692 390.783 789.612 390.621 789.532 390.46 789.451 390.38 789.451 390.219 789.371 389.977 789.289 389.735 789.209 389.493 788.725 388.043 788.484 386.915 788.404 385.627 788.404 385.304 788.323 384.981 788.323 384.66 788.323 384.337 788.323 384.015 788.323 383.693 788.404 383.371 809.431 395.536 809.431 395.536Z" fill="#BBEBFF" transform="matrix(1.00055 0 0 1 849 190)"/><path d="M817.808 381.116 812.733 389.897 789.369 376.443C790.175 373.22 791.544 369.999 793.317 366.936L817.808 381.116Z" fill="#96C7ED" transform="matrix(1.00055 0 0 1 849 190)"/><path d="M814.828 352.188C814.587 352.108 814.344 352.108 814.023 352.027 814.264 352.108 814.505 352.108 814.828 352.188Z" fill="#BBEBFF" transform="matrix(1.00055 0 0 1 849 190)"/><path d="M816.196 352.589C816.277 352.589 816.036 352.509 815.795 352.429 815.956 352.509 816.116 352.589 816.196 352.589Z" fill="#BBEBFF" transform="matrix(1.00055 0 0 1 849 190)"/><path d="M827.961 363.472 824.095 370.159 801.375 357.027C802.664 355.98 803.953 355.013 805.323 354.207 806.612 353.483 807.901 352.919 809.109 352.515 809.029 352.596 827.961 363.472 827.961 363.472Z" fill="#C7EDFF" transform="matrix(1.00055 0 0 1 849 190)"/><path d="M812.733 389.895 809.512 395.533 788.404 383.368C788.404 381.113 788.807 378.776 789.371 376.44L812.733 389.895Z" fill="#AEDFF7" transform="matrix(1.00055 0 0 1 849 190)"/><path d="M824.095 370.233 817.811 381.191 793.319 367.012C795.495 363.225 798.313 359.76 801.376 357.101L824.095 370.233Z" fill="#AEDFF7" transform="matrix(1.00055 0 0 1 849 190)"/><path d="M827.961 363.469 809.028 352.512C809.995 352.189 810.559 352.109 811.043 352.028 811.607 351.948 811.768 351.948 811.929 351.948 812.493 351.948 812.735 351.948 812.896 351.948 813.137 351.948 813.379 351.948 813.621 351.948 814.265 352.028 814.507 352.028 814.748 352.109 815.152 352.189 815.393 352.271 815.635 352.351 815.957 352.512 816.199 352.592 816.44 352.673 816.763 352.835 817.004 352.915 817.247 353.076 817.327 353.076 829.733 360.327 829.733 360.327L827.961 363.469Z" fill="#AEDFF7" transform="matrix(1.00055 0 0 1 849 190)"/><path d="M800.811 390.943C800.811 380.147 808.465 367.015 817.811 361.617 827.236 356.22 834.809 360.571 834.809 371.285 834.809 382.081 827.156 395.213 817.811 400.611 808.384 406.089 800.811 401.739 800.811 390.943Z" fill="#96C7ED" transform="matrix(1.00055 0 0 1 849 190)"/><path d="M800.811 390.943C800.811 380.147 808.465 367.015 817.811 361.617 827.236 356.22 834.809 360.571 834.809 371.285 834.809 382.081 827.156 395.213 817.811 400.611 808.384 406.089 800.811 401.739 800.811 390.943Z" fill="#2B83C6" transform="matrix(1.00055 0 0 1 849 190)"/><path d="M803.872 389.173C803.872 380.312 810.156 369.516 817.809 365.085 825.544 360.655 831.747 364.199 831.747 373.061 831.747 381.923 825.463 392.719 817.809 397.149 810.075 401.581 803.872 398.036 803.872 389.173Z" fill="#96C7ED" transform="matrix(1.00055 0 0 1 849 190)"/><path d="M924.557 450.879C924.799 465.219 916.501 476.981 904.98 482.54 896.924 486.488 887.256 487.213 877.749 483.668 871.385 481.252 866.551 479.399 865.181 478.915 855.595 475.612 850.116 469.972 847.055 460.949 844.235 452.812 843.509 441.936 843.509 427.676 843.509 408.18 808.625 398.835 808.625 398.835 808.625 398.835 809.269 394.323 808.948 389.167 808.705 385.38 809.108 382.157 809.753 379.419 811.605 372.328 815.795 368.381 819.663 366.205 823.932 363.788 827.88 363.467 827.88 363.467 827.88 363.467 868.565 380.304 869.451 404.071 869.853 413.819 868.001 424.535 871.465 432.993 873.157 436.941 875.977 440.325 880.731 442.903 894.507 450.395 889.109 405.279 889.109 405.279L897.568 405.037 899.18 404.957 914.084 404.473 923.671 404.151 924.557 450.879Z" fill="#96C7ED" transform="matrix(1.00055 0 0 1 849 190)"/><path d="M892.815 467.56C875.655 489.475 854.144 476.584 847.055 460.873 844.235 452.737 843.509 441.86 843.509 427.6 843.509 408.104 808.625 398.759 808.625 398.759 808.625 398.759 803.549 396.744 803.791 389.091 803.952 385.304 805.644 381.115 806.369 378.376 814.828 382.324 848.424 398.517 849.229 418.98 849.793 433.24 844.799 458.376 860.428 465.385 897.245 481.981 891.607 405.123 891.607 405.123L897.568 404.963 899.18 404.317C899.18 404.317 899.18 404.559 899.18 404.881 899.34 410.36 901.275 456.845 892.815 467.56Z" fill="#AEDFF7" transform="matrix(1.00055 0 0 1 849 190)"/><path d="M871.545 432.996C865.744 430.659 869.048 399.4 860.347 389.975 843.589 371.767 825.945 367.013 817.808 365.16 822.079 362.744 827.96 363.549 827.96 363.549 827.96 363.549 868.645 380.387 869.531 404.153 869.933 413.821 868.081 424.536 871.545 432.996Z" fill="#E3F7FF" transform="matrix(1.00055 0 0 1 849 190)"/><path d="M924.557 450.883C924.799 465.224 916.5 476.985 904.98 482.545 909.572 478.033 913.277 471.427 913.841 461.599 915.372 435.012 914.487 408.668 914.245 404.559L923.832 404.236 924.557 450.883Z" fill="#AEDFF7" transform="matrix(1.00055 0 0 1 849 190)"/><path d="M930.276 388.367 885.481 388.367 885.481 401.901 930.276 401.901 930.276 388.367Z" fill="#BBEBFF" transform="matrix(1.00055 0 0 1 849 190)"/><path d="M923.508 388.367 930.356 388.367 930.356 401.66C930.356 402.063 930.356 402.305 930.356 402.547 930.033 404.077 929.953 404.319 929.872 404.641 929.712 405.124 929.551 405.367 929.469 405.527 929.309 405.849 929.228 406.011 929.148 406.172 929.067 406.333 928.905 406.495 928.825 406.736 928.423 407.3 928.261 407.461 928.1 407.621 927.133 408.669 926.328 409.395 925.361 410.12 925.119 410.28 924.877 410.441 924.636 410.603 924.395 410.764 924.072 410.925 923.831 411.087 923.508 411.167 923.508 388.367 923.508 388.367Z" fill="#BBEBFF" transform="matrix(1.00055 0 0 1 849 190)"/><path d="M907.879 388.367 917.385 388.367 917.385 413.584C914.405 414.389 911.101 414.792 907.879 414.873L907.879 388.367Z" fill="#96C7ED" transform="matrix(1.00055 0 0 1 849 190)"/><path d="M885.885 404.401C885.965 404.644 886.047 404.885 886.127 405.127 886.047 404.805 885.965 404.563 885.885 404.401Z" fill="#BBEBFF" transform="matrix(1.00055 0 0 1 849 190)"/><path d="M885.563 403.032C885.563 402.952 885.563 403.193 885.643 403.435 885.563 403.273 885.563 403.113 885.563 403.032Z" fill="#BBEBFF" transform="matrix(1.00055 0 0 1 849 190)"/><path d="M888.865 388.367 896.116 388.367 896.116 412.939C894.665 412.456 893.296 411.811 892.007 411.087 890.799 410.361 889.751 409.636 888.865 408.831L888.865 388.367Z" fill="#C7EDFF" transform="matrix(1.00055 0 0 1 849 190)"/><path d="M917.385 388.367 923.508 388.367 923.508 411.087C921.655 412.133 919.641 412.939 917.385 413.503L917.385 388.367Z" fill="#AEDFF7" transform="matrix(1.00055 0 0 1 849 190)"/><path d="M896.116 388.367 907.879 388.367 907.879 414.792C903.771 414.792 899.66 414.148 896.116 412.939L896.116 388.367Z" fill="#AEDFF7" transform="matrix(1.00055 0 0 1 849 190)"/><path d="M888.865 388.367 888.865 408.831C888.22 408.185 887.819 407.783 887.576 407.461 887.255 407.059 887.173 406.897 887.093 406.736 886.771 406.252 886.691 406.091 886.609 406.011 886.529 405.849 886.368 405.608 886.288 405.447 886.045 404.883 885.965 404.641 885.885 404.4 885.804 403.997 885.724 403.755 885.643 403.593 885.563 403.272 885.563 403.029 885.563 402.788 885.563 402.465 885.563 402.224 885.563 401.983 885.563 401.901 885.563 388.448 885.563 388.448L888.865 388.448 888.865 388.367Z" fill="#AEDFF7" transform="matrix(1.00055 0 0 1 849 190)"/><path d="M923.831 397.552C915.131 402.628 900.951 402.547 892.169 397.472 883.388 392.396 883.308 384.179 892.089 379.184 900.789 374.108 914.969 374.188 923.751 379.264 932.452 384.34 932.532 392.557 923.831 397.552Z" fill="#96C7ED" transform="matrix(1.00055 0 0 1 849 190)"/><path d="M923.831 397.552C915.131 402.628 900.951 402.547 892.169 397.472 883.388 392.396 883.308 384.179 892.089 379.184 900.789 374.108 914.969 374.188 923.751 379.264 932.452 384.34 932.532 392.557 923.831 397.552Z" fill="#2B83C6" transform="matrix(1.00055 0 0 1 849 190)"/><path d="M920.931 395.937C913.76 400.047 902.159 400.047 894.908 395.857 887.739 391.668 887.657 384.981 894.828 380.872 901.999 376.764 913.6 376.764 920.851 380.953 928.101 385.061 928.101 391.829 920.931 395.937Z" fill="#BBEBFF" transform="matrix(1.00055 0 0 1 849 190)"/><path d="M925.684 279.127 890.316 279.127 890.316 388.532 925.684 388.532 925.684 279.127Z" fill="#BBEBFF" transform="matrix(1.00055 0 0 1 849 190)"/><path d="M920.287 279.124 925.684 279.124 925.684 388.369C925.684 388.692 925.684 388.853 925.684 389.013 925.443 390.223 925.361 390.464 925.281 390.625 925.12 391.028 925.04 391.189 924.959 391.351 924.556 391.995 924.476 392.156 924.395 392.317 924.073 392.72 923.992 392.881 923.831 393.043 923.105 393.848 922.461 394.412 921.656 394.976 921.495 395.137 921.253 395.217 921.092 395.379 920.851 395.54 920.689 395.62 920.448 395.781 920.287 395.781 920.287 279.124 920.287 279.124Z" fill="#96C7ED" transform="matrix(1.00055 0 0 1 849 190)"/><path d="M908.04 279.124 915.533 279.124 915.533 397.715C913.196 398.36 910.619 398.681 908.04 398.681L908.04 279.124Z" fill="#96C7ED" transform="matrix(1.00055 0 0 1 849 190)"/><path d="M890.477 389.743C890.477 389.904 890.559 390.145 890.639 390.307 890.559 390.145 890.477 389.984 890.477 389.743Z" fill="#BBEBFF" transform="matrix(1.00055 0 0 1 849 190)"/><path d="M890.639 390.467C890.72 390.628 890.8 390.869 890.88 391.031 890.72 390.789 890.639 390.628 890.639 390.467Z" fill="#BBEBFF" transform="matrix(1.00055 0 0 1 849 190)"/><path d="M892.976 279.124 898.696 279.124 898.696 397.232C897.568 396.829 896.44 396.345 895.473 395.781 894.507 395.217 893.701 394.653 892.976 394.009 892.976 393.928 892.976 279.124 892.976 279.124Z" fill="#E3F7FF" transform="matrix(1.00055 0 0 1 849 190)"/><path d="M915.533 279.124 920.367 279.124 920.367 395.781C918.916 396.587 917.305 397.232 915.533 397.715L915.533 279.124Z" fill="#AEDFF7" transform="matrix(1.00055 0 0 1 849 190)"/><path d="M898.696 279.124 908.04 279.124 908.041 398.763C904.819 398.763 901.596 398.279 898.696 397.232L898.696 279.124Z" fill="#AEDFF7" transform="matrix(1.00055 0 0 1 849 190)"/><path d="M892.976 279.124 892.976 394.009C892.412 393.525 892.169 393.204 891.928 392.881 891.041 391.592 890.961 391.431 890.88 391.269 890.719 390.867 890.639 390.625 890.559 390.464 890.477 390.141 890.397 389.981 890.397 389.82 890.316 389.577 890.316 389.417 890.316 389.175 890.316 388.933 890.316 388.692 890.316 388.531 890.316 388.451 890.316 279.124 890.316 279.124L892.976 279.124Z" fill="#AEDFF7" transform="matrix(1.00055 0 0 1 849 190)"/><path d="M920.528 286.373C913.68 290.321 902.481 290.321 895.552 286.292 888.624 282.264 888.624 275.819 895.472 271.872 902.32 267.924 913.519 267.924 920.447 271.952 927.375 275.9 927.456 282.345 920.528 286.373Z" fill="#96C7ED" transform="matrix(1.00055 0 0 1 849 190)"/><path d="M920.528 286.373C913.68 290.321 902.481 290.321 895.552 286.292 888.624 282.264 888.624 275.819 895.472 271.872 902.32 267.924 913.519 267.924 920.447 271.952 927.375 275.9 927.456 282.345 920.528 286.373Z" fill="#C7EDFF" transform="matrix(1.00055 0 0 1 849 190)"/><path d="M918.272 285.007C912.633 288.228 903.448 288.228 897.728 285.007 892.008 281.703 892.008 276.385 897.648 273.163 903.287 269.94 912.472 269.94 918.192 273.163 923.912 276.467 923.912 281.784 918.272 285.007Z" fill="#BBEBFF" transform="matrix(1.00055 0 0 1 849 190)"/><path d="M930.276 267.845 885.481 267.845 885.481 281.38 930.276 281.38 930.276 267.845Z" fill="#BBEBFF" transform="matrix(1.00055 0 0 1 849 190)"/><path d="M923.508 267.844 930.356 267.844 930.356 281.137C930.356 281.54 930.356 281.783 930.356 282.024 930.033 283.555 929.953 283.796 929.872 284.119 929.712 284.603 929.551 284.844 929.469 285.005 929.309 285.327 929.228 285.488 929.148 285.649 929.067 285.811 928.905 285.972 928.825 286.213 928.423 286.777 928.261 286.939 928.1 287.1 927.133 288.147 926.328 288.872 925.361 289.516 925.119 289.677 924.877 289.839 924.636 290 924.395 290.161 924.072 290.323 923.831 290.483 923.508 290.644 923.508 267.844 923.508 267.844Z" fill="#BBEBFF" transform="matrix(1.00055 0 0 1 849 190)"/><path d="M907.879 267.844 917.385 267.844 917.385 293.061C914.405 293.867 911.101 294.269 907.879 294.351L907.879 267.844Z" fill="#96C7ED" transform="matrix(1.00055 0 0 1 849 190)"/><path d="M885.885 283.879C885.965 284.12 886.047 284.361 886.127 284.603 886.047 284.281 885.965 284.039 885.885 283.879Z" fill="#BBEBFF" transform="matrix(1.00055 0 0 1 849 190)"/><path d="M885.563 282.511C885.563 282.429 885.563 282.671 885.643 282.912 885.563 282.751 885.563 282.591 885.563 282.511Z" fill="#BBEBFF" transform="matrix(1.00055 0 0 1 849 190)"/><path d="M888.865 267.844 896.116 267.844 896.116 292.417C894.665 291.933 893.296 291.289 892.007 290.564 890.799 289.839 889.751 289.113 888.865 288.308L888.865 267.844Z" fill="#C7EDFF" transform="matrix(1.00055 0 0 1 849 190)"/><path d="M917.385 267.844 923.508 267.844 923.508 290.644C921.655 291.692 919.641 292.497 917.385 293.061L917.385 267.844Z" fill="#AEDFF7" transform="matrix(1.00055 0 0 1 849 190)"/><path d="M896.116 267.844 907.879 267.844 907.879 294.269C903.771 294.269 899.66 293.625 896.116 292.417L896.116 267.844Z" fill="#AEDFF7" transform="matrix(1.00055 0 0 1 849 190)"/><path d="M888.865 267.844 888.865 288.308C888.22 287.664 887.819 287.261 887.576 286.939 887.255 286.536 887.173 286.375 887.093 286.213 886.771 285.731 886.691 285.569 886.609 285.488 886.529 285.327 886.368 285.085 886.288 284.924 886.045 284.36 885.965 284.12 885.885 283.879 885.804 283.475 885.724 283.232 885.643 283.072 885.563 282.749 885.563 282.508 885.563 282.265 885.563 281.944 885.563 281.701 885.563 281.46 885.563 281.38 885.563 267.925 885.563 267.925L888.865 267.925 888.865 267.844Z" fill="#AEDFF7" transform="matrix(1.00055 0 0 1 849 190)"/><path d="M923.831 277.029C915.129 282.105 900.951 282.024 892.169 276.949 883.388 271.873 883.307 263.656 892.088 258.661 900.789 253.585 914.969 253.665 923.751 258.741 932.451 263.817 932.532 272.035 923.831 277.029Z" fill="#96C7ED" transform="matrix(1.00055 0 0 1 849 190)"/><path d="M923.831 277.029C915.129 282.105 900.951 282.024 892.169 276.949 883.388 271.873 883.307 263.656 892.088 258.661 900.789 253.585 914.969 253.665 923.751 258.741 932.451 263.817 932.532 272.035 923.831 277.029Z" fill="#C7EDFF" transform="matrix(1.00055 0 0 1 849 190)"/><path d="M920.931 275.415C913.76 279.524 902.159 279.524 894.908 275.335 887.737 271.145 887.657 264.459 894.828 260.349 901.997 256.24 913.599 256.24 920.849 260.429 928.1 264.539 928.1 271.307 920.931 275.415Z" fill="#BBEBFF" transform="matrix(1.00055 0 0 1 849 190)"/><path d="M793.801 285.404 796.219 286.775C809.028 294.187 824.175 299.504 839.884 302.565 855.595 305.627 871.949 306.271 887.095 304.256 920.609 299.825 950.177 290.561 973.38 277.187 973.38 277.187 1007.78 258.093 1045.89 228.124 1066.91 211.608 1137.17 134.347 1131.93 125.243 1126.69 116.139 1057.17 150.863 1044.36 143.531L1041.94 142.161C1014.71 126.451 952.432 105.827 921.255 111.386 915.937 112.352 911.023 113.641 906.431 115.172 901.839 116.783 897.649 118.636 893.863 120.812L757.145 199.765C753.359 201.94 750.055 204.357 747.316 207.016 744.577 209.675 680.528 157.227 678.836 160.288 669.008 178.415 731.525 249.473 793.801 285.404Z" fill="#AEDFF7" transform="matrix(1.00055 0 0 1 849 190)"/><path d="M752.632 239.079 755.935 240.932C773.337 251.003 794.041 258.335 815.472 262.443 836.903 266.552 859.219 267.519 879.843 264.779 925.604 258.737 965.885 246.088 997.467 227.881L1071.59 185.101C1103.17 166.893 1125.08 143.611 1135.55 117.185 1140.31 105.262 1138.62 92.4521 1131.53 80.0452 1124.36 67.6384 1111.71 55.7148 1094.23 45.6443L1090.92 43.7913C1053.78 22.3612 968.867-5.75576 926.328 1.89785 919.159 3.18688 912.311 4.95929 906.107 7.13453 899.823 9.30977 894.103 11.8878 888.947 14.8687L702.44 122.503C697.284 125.484 692.853 128.787 689.067 132.412 685.36 136.037 682.299 139.904 680.044 144.093 666.751 168.667 715.492 217.649 752.632 239.079Z" fill="#E3F7FF" transform="matrix(1.00055 0 0 1 849 190)"/><path d="M1101.96 112.919C1093.02 135.477 1074.08 155.699 1047.26 171.167L973.137 213.947C960.811 221.117 946.712 227.24 931.405 232.315 929.391 232.96 927.537 233.604 925.443 234.088 915.615 237.229 905.221 239.808 894.345 241.903 891.607 242.467 888.867 242.949 886.048 243.433 881.616 244.239 877.024 244.964 872.432 245.608 858.333 247.381 842.543 246.817 826.591 243.675 809.672 240.452 793.72 234.652 780.428 226.917L777.205 224.984C738.615 202.748 706.551 161.903 712.995 149.899 714.445 147.24 716.379 144.823 718.715 142.567 720.971 140.311 782.683 123.956 801.857 115.819 825.463 105.749 867.84 81.7407 884.759 67.8836 897.084 57.8129 919.884 25.5067 923.752 24.1371 927.699 22.7675 931.969 21.7201 936.48 20.9145 957.267 17.2085 1028.08 35.6579 1066.67 57.9741L1069.89 59.9077C1083.27 67.5613 1093.34 76.8261 1098.9 86.5744 1103.97 95.5976 1105.18 104.782 1101.96 112.919Z" fill="#BBEBFF" transform="matrix(1.00055 0 0 1 849 190)"/><path d="M728.059 156.421C728.059 156.421 784.535 201.941 828.604 202.344 872.672 202.747 890.557 181.961 879.359 181.639 868.16 181.316 865.341 195.817 815.068 190.743 775.672 186.715 728.059 156.421 728.059 156.421Z" fill="#C7EDFF" transform="matrix(1.00055 0 0 1 849 190)"/><path d="M933.821 49.5095C933.821 49.5095 929.391 132.732 913.359 153.921 899.581 172.048 890.8 164.395 904.899 166.649 918.997 168.905 942.04 133.539 941.717 119.6 941.476 105.582 933.821 49.5095 933.821 49.5095Z" fill="#C7EDFF" transform="matrix(1.00055 0 0 1 849 190)"/><path d="M1037.11 61.4367C1037.11 61.4367 1031.47 103.814 1009.39 133.461 987.396 163.189 932.209 195.737 932.209 195.737 932.209 195.737 998.595 182.928 1020.11 168.748 1041.54 154.649 1079.4 99.8659 1079.4 99.8659 1079.4 99.8659 1070.38 66.5928 1037.11 61.4367Z" fill="#FFFFFF" transform="matrix(1.00055 0 0 1 849 190)"/><path d="M927.78 227.163C927.78 229.579 926.975 231.916 925.444 234.011 915.615 237.152 905.223 239.731 894.347 241.825 891.848 241.18 889.593 240.213 887.499 239.005 882.423 236.105 879.441 231.673 879.441 227.081 879.441 222.409 882.343 218.059 887.417 215.159 891.848 212.661 897.569 211.291 903.611 211.291 909.653 211.291 915.373 212.661 919.804 215.239 924.88 218.139 927.78 222.571 927.78 227.163Z" fill="#26466C" transform="matrix(1.00055 0 0 1 849 190)"/><path d="M927.78 227.163C927.78 229.579 926.975 231.916 925.444 234.011 915.615 237.152 905.223 239.731 894.347 241.825 891.848 241.18 889.593 240.213 887.499 239.005 882.423 236.105 879.441 231.673 879.441 227.081 879.441 222.409 882.343 218.059 887.417 215.159 891.848 212.661 897.569 211.291 903.611 211.291 909.653 211.291 915.373 212.661 919.804 215.239 924.88 218.139 927.78 222.571 927.78 227.163Z" fill="#26466C" transform="matrix(1.00055 0 0 1 849 190)"/><path d="M903.449 215.72C908.525 215.72 913.6 216.848 917.468 219.104 925.201 223.535 925.201 230.705 917.548 235.136 913.761 237.311 908.767 238.439 903.691 238.439 898.616 238.439 893.54 237.311 889.673 235.056 881.939 230.624 881.939 223.455 889.592 219.023 893.46 216.848 898.455 215.72 903.449 215.72ZM921.979 211.208C916.904 208.308 910.297 206.697 903.449 206.697 896.683 206.697 890.156 208.308 885.081 211.208 878.555 214.915 874.849 220.715 874.849 226.999 874.849 233.364 878.636 239.084 885.161 242.871 885.403 243.031 885.725 243.112 885.967 243.192 902.08 240.453 917.225 236.747 931.325 232.075 931.969 230.463 932.211 228.691 932.211 226.999 932.292 220.796 928.585 214.995 921.979 211.208Z" fill="#2B83C6" transform="matrix(1.00055 0 0 1 849 190)"/><path d="M813.136 43.7923 901.273 90.1167 907.96 107.76 849.148 67.0753 850.437 90.1167 822.804 107.196 799.359 93.6615 803.227 44.9201C803.145 40.5696 809.429 41.6169 813.136 43.7923Z" fill="#26466C" transform="matrix(1.00055 0 0 1 849 190)"/><path d="M841.012 25.2621 927.135 75.212 901.273 90.1167 803.549 38.6357 824.496 25.2621C832.229 20.7505 833.277 20.7505 841.012 25.2621Z" fill="#2B83C6" transform="matrix(1.00055 0 0 1 849 190)"/><path d="M907.959 107.681 901.273 90.1167 927.133 75.2131 933.82 92.776 907.959 107.681Z" fill="#2B83C6" transform="matrix(1.00055 0 0 1 849 190)"/><path d="M812.088 38.6369 901.273 90.1167 907.96 107.76 823.851 59.1809 822.723 107.197 799.279 93.6624 799.279 46.0489C799.279 39.4427 806.449 35.3339 812.088 38.6369Z" fill="#2B83C6" transform="matrix(1.00055 0 0 1 849 190)"/><path d="M807.335 20.3475C807.335 20.3475 821.756 5.84595 830.779 7.94061 839.803 10.0353 867.436 31.4655 879.117 35.8159 894.505 41.6165 912.149 49.3507 912.149 49.3507 912.149 49.3507 912.149 55.9569 912.149 54.9096 912.149 53.7817 891.524 61.3548 891.524 61.3548L853.579 46.692 807.335 20.3475Z" fill="#96C7ED" transform="matrix(1.00055 0 0 1 849 190)"/><path d="M812.733 36.5389C812.733 36.5389 801.213 17.848 810.156 19.9427 819.099 22.0373 846.812 43.4675 858.495 47.818 873.881 53.6185 891.525 61.3528 891.525 61.3528 891.525 61.3528 891.525 67.9591 891.525 66.9117 891.525 65.7837 833.197 41.4533 833.197 41.4533L829.329 46.1261 812.733 36.5389Z" fill="#AEDFF7" transform="matrix(1.00055 0 0 1 849 190)"/><path d="M912.151 54.9896 891.607 66.6715 891.607 61.4348 912.151 49.5112 912.151 54.9896Z" fill="#BBEBFF" transform="matrix(1.00055 0 0 1 849 190)"/><path d="M914.003 234.811C908.283 238.113 899.019 238.113 893.299 234.811 887.577 231.507 887.497 226.109 893.217 222.887 898.937 219.584 908.203 219.584 913.923 222.887 919.643 226.189 919.643 231.507 914.003 234.811Z" fill="#AEDFF7" transform="matrix(1.00055 0 0 1 849 190)"/><path d="M844.719 386.031C844.719 386.031 845.201 386.273 845.927 386.837 848.505 388.609 852.291 394.249 855.756 398.76 860.107 404.4 861.476 421.48 861.476 421.48 861.476 421.48 862.925 399.808 860.267 395.619 855.756 388.368 844.719 386.031 844.719 386.031Z" fill="#FFFFFF" transform="matrix(1.00055 0 0 1 849 190)"/><path d="M721.051 687.744C717.425 692.657 713.8 697.572 711.141 702.889 708.403 707.884 705.985 713.847 706.952 718.036 707.839 721.903 712.431 723.997 717.909 724.723 723.145 725.689 729.511 725.769 735.392 725.931 747.315 726.333 759.319 725.851 771.323 725.367L807.657 723.433C784.455 731.409 759.883 734.955 735.149 734.632 728.865 734.229 722.984 734.229 716.297 732.779 714.687 732.456 713.075 732.135 711.383 731.329 709.772 730.523 708.08 730.281 706.549 728.912 703.327 726.979 700.588 723.031 700.265 719.003 699.781 710.945 703.971 705.468 707.677 700.472 711.705 695.72 716.056 691.288 721.051 687.744Z" fill="#FFFFFF" transform="matrix(1.00055 0 0 1 849 190)"/><path d="M1108 557.873C1120.09 558.437 1132.17 560.291 1143.77 564.883 1149.57 567.3 1155.45 570.039 1160.13 576.243 1161.41 577.612 1161.9 579.948 1162.54 581.881 1162.54 583.896 1162.87 586.473 1162.06 588.165 1160.93 592.033 1158.92 594.852 1156.9 597.431 1148.36 607.42 1138.21 614.027 1127.82 620.392 1117.43 626.595 1106.39 631.751 1095.03 635.86L1124.03 614.671C1133.3 607.501 1143.13 600.412 1150.05 591.952 1151.75 589.939 1153.2 587.683 1153.84 585.829 1154.41 584.781 1153.92 584.137 1154.24 583.251 1153.68 582.445 1154 581.56 1153.2 580.673 1150.94 576.967 1145.87 573.744 1140.95 571.085 1130.72 565.769 1119.44 561.74 1108 557.873Z" fill="#FFFFFF" transform="matrix(1.00055 0 0 1 849 190)"/><path d="M880.327 760.009C891.687 761.217 902.965 762.345 914.324 762.667 925.604 763.231 936.963 763.473 948.243 762.989 970.72 762.023 993.277 759.928 1014.55 753.564 1019.78 751.791 1025.26 750.583 1030.26 748.247L1037.91 745.104C1040.41 743.976 1042.74 742.527 1045.24 741.317 1055.15 736.484 1064.17 729.716 1071.75 722.224 1079.08 714.732 1083.59 703.775 1077.87 694.268 1073.2 684.6 1063.37 677.672 1053.7 672.032 1059.1 673.967 1064.25 676.544 1069.01 679.847 1073.84 683.069 1078.27 687.099 1081.58 692.255 1083.43 694.752 1084.23 697.813 1085.2 700.795 1085.36 703.936 1086.01 707.159 1085.04 710.22 1084.07 716.584 1080.53 721.901 1076.82 726.655 1060.95 744.783 1039.12 755.336 1016.88 762.104 994.405 768.548 971.123 770.483 948.161 769.837 925.281 769.032 902.401 766.132 880.327 760.009Z" fill="#FFFFFF" transform="matrix(1.00055 0 0 1 849 190)"/><path d="M888.867 408.832C888.867 408.832 887.657 481.34 885.483 494.875 883.308 508.409 885.16 518.399 888.867 519.044 892.572 519.688 892.492 471.995 892.492 471.995L892.008 411.088 888.867 408.832Z" fill="#BBEBFF" transform="matrix(1.00055 0 0 1 849 190)"/><path d="M887.819 513.643C886.449 511.307 884.999 504.459 886.932 492.615 888.221 484.639 889.108 457.087 889.752 435.173L889.993 469.413C889.993 487.781 889.268 507.923 887.819 513.643Z" fill="#E3F7FF" transform="matrix(1.00055 0 0 1 849 190)"/><path d="M922.621 411.169C922.621 411.169 924.233 483.596 926.005 497.212 935.673 570.041 924.152 571.412 920.447 572.056 916.74 572.7 912.632 478.037 912.632 478.037L909.489 414.875 922.621 411.169Z" fill="#BBEBFF" transform="matrix(1.00055 0 0 1 849 190)"/><path d="M925.2 567.056C922.783 558.355 919.883 507.197 918.513 475.293L917.868 457.649C917.868 457.649 934.707 562.705 925.2 567.056Z" fill="#E3F7FF" transform="matrix(1.00055 0 0 1 849 190)"/><path d="M898.695 552.801C898.695 552.801 889.832 572.297 896.116 575.923 902.4 579.628 898.695 552.801 898.695 552.801Z" fill="#BBEBFF" transform="matrix(1.00055 0 0 1 849 190)"/><path d="M896.44 571.571C894.587 569.959 895.312 564.481 897.004 558.921 897.407 564.964 897.245 570.04 896.44 571.571Z" fill="#E3F7FF" transform="matrix(1.00055 0 0 1 849 190)"/><path d="M903.689 429.62C903.849 425.592 895.875 460.88 898.372 476.348 899.016 480.376 906.912 480.296 906.348 476.348 903.849 460.799 902.964 445.331 903.689 429.62Z" fill="#BBEBFF" transform="matrix(1.00055 0 0 1 849 190)"/><path d="M902.239 474.736C901.192 474.736 899.903 474.253 899.823 473.448 898.775 466.76 899.741 455.965 901.111 446.62 901.515 455.804 902.4 465.069 903.851 474.092 903.689 474.495 903.125 474.736 902.239 474.736Z" fill="#E3F7FF" transform="matrix(1.00055 0 0 1 849 190)"/><path d="M877.023 551.105C875.169 554.892 882.984 556.263 884.676 552.717 887.175 547.4 888.463 541.76 888.624 535.879 888.785 531.851 879.359 546.272 877.023 551.105Z" fill="#BBEBFF" transform="matrix(1.00055 0 0 1 849 190)"/><path d="M880.165 550.221C879.037 550.221 878.312 549.739 878.151 549.577 879.681 546.355 883.227 540.796 885.804 537.412 885.24 541.601 884.112 545.549 882.34 549.336 882.099 549.9 881.051 550.221 880.165 550.221Z" fill="#E3F7FF" transform="matrix(1.00055 0 0 1 849 190)"/><path d="M909.489 593.563C909.489 597.591 917.465 597.591 917.465 593.563L912.632 569.553C912.632 565.525 909.489 593.563 909.489 593.563Z" fill="#BBEBFF" transform="matrix(1.00055 0 0 1 849 190)"/><path d="M912.955 592.032C912.472 592.032 910.941 591.871 910.941 590.984 911.344 587.359 911.908 582.687 912.391 578.497L914.969 591.388C914.969 591.709 913.68 592.032 912.955 592.032Z" fill="#E3F7FF" transform="matrix(1.00055 0 0 1 849 190)"/><path d="M934.223 510.101C935.189 517.029 935.512 523.959 935.351 530.967 935.271 534.996 943.247 534.996 943.327 530.967 943.488 523.959 933.659 506.153 934.223 510.101Z" fill="#BBEBFF" transform="matrix(1.00055 0 0 1 849 190)"/><path d="M938.736 529.44C938.011 529.44 937.285 529.199 936.963 528.876 936.963 524.123 936.801 519.531 936.48 515.1 938.655 519.611 940.911 525.251 940.831 528.312 940.749 529.117 939.541 529.44 938.736 529.44Z" fill="#E3F7FF" transform="matrix(1.00055 0 0 1 849 190)"/><path d="M908.121 496.083C907.637 492.055 903.207 525.892 903.771 540.877 903.931 544.905 911.907 544.905 911.747 540.877 911.183 525.892 909.973 510.988 908.121 496.083Z" fill="#BBEBFF" transform="matrix(1.00055 0 0 1 849 190)"/><path d="M907.396 539.341C906.589 539.341 905.301 539.019 905.301 538.213 904.979 530.399 906.107 517.508 907.235 507.68 908.201 517.912 908.927 528.224 909.248 538.375 908.845 539.1 908.201 539.341 907.396 539.341Z" fill="#E3F7FF" transform="matrix(1.00055 0 0 1 849 190)"/><path d="M937.365 554.813C938.171 558.52 939.54 579.869 939.38 583.656 939.219 587.684 947.195 587.764 947.356 583.656 947.436 579.305 936.399 550.544 937.365 554.813Z" fill="#BBEBFF" transform="matrix(1.00055 0 0 1 849 190)"/><path d="M942.683 582.047C941.877 582.047 941.232 581.805 940.991 581.483 940.991 579.147 940.588 571.976 940.104 565.208 942.521 571.976 944.857 579.307 944.777 580.919 944.696 581.805 943.488 582.047 942.683 582.047Z" fill="#E3F7FF" transform="matrix(1.00055 0 0 1 849 190)"/><path d="M933.339 481.261 933.339 482.228C933.339 486.256 941.315 486.256 941.315 482.228L941.315 481.261C941.315 477.233 933.339 477.233 933.339 481.261Z" fill="#BBEBFF" transform="matrix(1.00055 0 0 1 849 190)"/><path d="M937.367 482.309C936.883 482.309 935.352 482.148 935.352 481.261L935.352 480.295C935.352 479.408 936.803 479.248 937.367 479.248 937.849 479.248 939.38 479.408 939.38 480.295L939.38 481.261C939.3 482.067 938.092 482.309 937.367 482.309Z" fill="#E3F7FF" transform="matrix(1.00055 0 0 1 849 190)"/><path d="M882.905 629.736C845.12 651.568 811.203 682.103 844.96 691.528 878.716 700.955 905.544 682.103 923.912 691.528 942.361 700.955 991.587 695.476 998.757 668.407 1005.93 641.337 954.205 653.26 980.065 639.404 1005.93 625.465 1012.53 613.381 989.733 608.144 966.933 602.988 927.135 604.197 882.905 629.736Z" fill="#E3F7FF" transform="matrix(1.00055 0 0 1 849 190)"/><path d="M1105.34 930.401 1076.98 1119.97C1077.06 1131.17 1069.81 1142.45 1054.99 1150.99 1053.7 1151.71 1052.41 1152.44 1051.04 1153.08 1025.83 1165.73 989.571 1167.02 961.776 1157.11 956.861 1155.34 952.189 1153.24 947.919 1150.74 947.436 1150.42 946.952 1150.18 946.388 1149.86 932.612 1141.48 925.683 1130.76 925.603 1119.97L897.244 930.401 1105.34 930.401Z" fill="#FF813B" transform="matrix(1.00055 0 0 1 849 190)"/><path d="M961.857 1157.03C956.943 1155.26 952.269 1153.16 948 1150.66 947.517 1150.34 947.033 1150.1 946.469 1149.78L917.708 934.833 927.376 930.321 951.223 930.321 955.735 939.989C955.735 940.069 961.696 1076.22 961.857 1157.03Z" fill="#FC9A5D" transform="matrix(1.00055 0 0 1 849 190)"/><path d="M1105.34 930.401 1076.98 1119.97C1077.06 1131.17 1069.81 1142.45 1054.99 1150.99 1053.7 1151.71 1052.41 1152.44 1051.04 1153.08L1063.13 930.481 1105.34 930.481 1105.34 930.401Z" fill="#F46C0A" transform="matrix(1.00055 0 0 1 849 190)"/><path d="M1075.13 972.944C1034.61 996.307 968.785 996.227 928.02 972.701 887.255 949.177 887.093 911.151 927.537 887.787 968.06 864.424 1033.88 864.504 1074.65 888.029 1115.41 911.553 1115.65 949.58 1075.13 972.944Z" fill="#F46C0A" transform="matrix(1.00055 0 0 1 849 190)"/><path d="M1001.98 994.212C974.505 994.212 947.033 988.169 926.087 976.084 905.059 963.92 893.457 947.565 893.457 930.001 893.457 912.6 904.897 896.407 925.603 884.403 967.093 860.475 1034.85 860.555 1076.58 884.644 1097.61 896.809 1109.21 913.164 1109.21 930.727 1109.21 948.129 1097.77 964.323 1077.06 976.327 1056.36 988.249 1029.21 994.212 1001.98 994.212ZM1000.69 874.171C974.828 874.171 949.128 879.811 929.471 891.169 911.181 901.724 901.192 915.5 901.192 930.083 901.192 944.745 911.424 958.763 929.953 969.479 969.591 992.359 1033.8 992.439 1073.2 969.72 1091.49 959.167 1101.47 945.389 1101.47 930.808 1101.47 916.145 1091.24 902.127 1072.71 891.412 1052.81 879.891 1026.71 874.171 1000.69 874.171Z" fill="#FFA875" transform="matrix(1.00055 0 0 1 849 190)"/><path d="M936.721 972.539C931.484 969.719 926.087 971.895 934.143 986.637 942.2 1001.38 1015.19 1053.18 1074.41 1029.18 1116.54 1012.01 1096.96 986.637 1096.96 986.637 1096.96 986.637 1096.32 1007.58 1084.48 1015.08 1057.65 1032.16 1001.41 1023.05 970.961 1001.3 940.588 979.548 947.516 978.259 936.721 972.539Z" fill="#2B83C6" transform="matrix(1.00055 0 0 1 849 190)"/></g></svg>